<svg viewBox="0 0 749 502" fill="#f2f2f2" xmlns="http://www.w3.org/2000/svg"><path d="M451.4 422h37.8c6.3 0 10.86 1.44 13.68 4.32 2.88 2.82 4.32 7.38 4.32 13.68v9c0 6.3-1.44 10.89-4.32 13.77-2.82 2.82-7.38 4.23-13.68 4.23h-21.6v18h-16.2v-63zm39.6 18c0-3.6-1.8-5.4-5.4-5.4h-18v19.8h18c3.6 0 5.4-1.8 5.4-5.4v-9zm130.496 45h-17.1l-21.6-37.8V485h-16.2v-63h17.1l21.6 37.8V422h16.2v63zm103.543-50.4l-31.5 37.8h31.5V485h-51.3v-12.6l31.5-37.8h-31.5V422h51.3v12.6z"/><path fill-rule="evenodd" clip-rule="evenodd" d="M638.478 340.59c0 .585.333 1.126.876 1.415l19.913 10.73c.266.143.567.218.874.218.307 0 .608-.075.874-.218l19.915-10.73c.548-.29.876-.831.876-1.415v-21.491c0-.586-.328-1.126-.862-1.42l-19.902-10.748a1.876 1.876 0 00-1.765 0l-19.916 10.748c-.547.294-.876.834-.876 1.42l-.007 21.491zm-5.379-159.176a3.72 3.72 0 013.482.035c1.068.588 1.728 1.663 1.728 2.828v83.169c-.001.402.112.797.327 1.146.214.348.524.637.896.839.373.201.795.306 1.225.306.431 0 .853-.106 1.225-.308l14.523-7.819a7.363 7.363 0 013.498-.877c1.229 0 2.435.302 3.499.877l57.994 31.288a6.778 6.778 0 012.563 2.389c.615.993.94 2.12.941 3.267v62.594c0 2.342-1.337 4.492-3.504 5.669l-57.994 31.31a7.46 7.46 0 01-7.004 0l-57.994-31.323c-2.163-1.177-3.504-3.327-3.504-5.668v-156a6.244 6.244 0 01.969-3.317 6.826 6.826 0 012.631-2.403l34.499-18.002zm-61.325 138.575a6.796 6.796 0 002.541-2.409c.609-.999.93-2.131.93-3.283v-15.259c0-2.347-1.324-4.513-3.477-5.695l-57.458-31.455a7.304 7.304 0 00-3.501-.888c-1.23 0-2.437.306-3.501.888l-57.814 31.468c-2.17 1.184-3.494 3.346-3.494 5.702v62.935c0 2.369 1.351 4.556 3.521 5.728l57.446 30.875a7.33 7.33 0 006.851.039l34.749-18.211c1.091-.579 1.787-1.674 1.787-2.857 0-1.184-.668-2.292-1.76-2.871l-58.169-31.48c-1.092-.579-1.761-1.674-1.761-2.845v-19.743c0-1.179.656-2.265 1.747-2.852l18.098-9.846a3.631 3.631 0 013.48 0l18.112 9.846c1.078.579 1.747 1.673 1.747 2.844v15.522c0 1.171.668 2.265 1.747 2.857a3.69 3.69 0 003.494-.013l34.685-18.997z"/><path d="M121 196v112.096c0 1.904 0 2.904 2 4.185l25 15.574c3 1.645 4 1.645 7 .035l25.467-15.609c1.033-.781 2.033-1.781 2.033-4.185V261.5c0-3 1-5.5 4-7.335l21.5-12.74c2.5-1.425 6-1.425 8.5 0l21.5 12.74c3 2.335 4 3.335 4 7.335v46.596c0 2.904 1 3.404 2.164 4.185l27.11 15.609c3.226 1.61 4.726 1.61 7.169-.035l24.59-15.574C305 311 305 310.5 305 308.096V196c0-6 0-7.5 4.5-10.5l50-26.5c2-1 7.5-1 7.5 5v178c0 3-2.5 6-6 8.5L282 397c-4 2-5 2-9 0l-56-30c-3-1.5-4-1.5-7 0l-55 30c-3 1.5-4 1.5-7 0l-83-47c-2-1.5-4-3-4-6V164c0-6 5-6 7-5l47 26.5c6 3 6 4.5 6 10.5z"/><path fill-rule="evenodd" clip-rule="evenodd" d="M213.483 1.124a1 1 0 00-.965 0L1.517 117.573a1.001 1.001 0 00-.517.876v263.822a1 1 0 00.514.873l211.001 117.444a.998.998 0 00.971.001l211.999-117.445a1 1 0 00.515-.875V118.45a.998.998 0 00-.519-.876L213.483 1.124zm.052 20.007a1 1 0 00-.976 0L21.511 128.213a1 1 0 00-.511.872v242.631a1 1 0 00.508.871l191.048 107.995a1 1 0 00.983.001L405.49 372.585a1 1 0 00.51-.871V129.086a1 1 0 00-.513-.874L213.535 21.131z"/><path d="M212.518 1.124l.242.438-.242-.438zm.965 0l-.241.438.241-.438zM1.517 117.573l-.242-.438.242.438zm-.003 265.571l.243-.437-.243.437zm211.001 117.444l.243-.436v-.001l-.243.437zm.971.001l.242.438-.242-.438zm211.999-117.445l.242.437-.242-.437zm-.004-265.57l-.24.438.24-.438zM212.559 21.132l-.244-.436.244.436zm.976-.001l-.243.436.243-.436zM21.511 128.212l.245.436-.245-.436zm-.003 244.374l.246-.436-.246.436zm191.048 107.995l.246-.435-.246.435zm.983.001l-.246-.436.246.436zM405.49 372.585l.246.436-.246-.436zm-.003-244.373l.244-.436-.244.436zM212.76 1.562a.5.5 0 01.482 0l.481-.877a1.5 1.5 0 00-1.447.002l.484.875zM1.758 118.011L212.76 1.562l-.484-.875-211 116.448.482.876zm-.258.438a.5.5 0 01.258-.438l-.483-.876a1.5 1.5 0 00-.775 1.314h1zm0 263.822V118.449h-1v263.822h1zm.257.436a.499.499 0 01-.257-.436h-1a1.5 1.5 0 00.77 1.31l.487-.874zm211.001 117.444L1.757 382.707l-.487.874 211.002 117.444.486-.874zm.485.001a.5.5 0 01-.485 0l-.486.873a1.5 1.5 0 001.456.002l-.485-.875zm211.999-117.445L213.243 500.152l.485.875 211.999-117.446-.485-.874zm.258-.438c0 .182-.099.35-.258.438l.485.874c.477-.264.773-.766.773-1.312h-1zm0-263.819v263.819h1V118.45h-1zm-.259-.438a.5.5 0 01.259.438h1c0-.547-.298-1.051-.778-1.315l-.481.877zM213.242 1.562l211.999 116.45.481-.877L213.723.685l-.481.877zm-.438 20.006a.5.5 0 01.488 0l.487-.874a1.5 1.5 0 00-1.464.002l.489.872zM21.756 128.648l191.048-107.08-.489-.872-191.048 107.08.489.872zm-.256.436a.5.5 0 01.256-.436l-.49-.872a1.5 1.5 0 00-.766 1.308h1zm0 242.631V129.084h-1v242.631h1zm.254.435a.499.499 0 01-.254-.435h-1a1.5 1.5 0 00.762 1.306l.492-.871zm191.048 107.996L21.754 372.15l-.492.871L212.31 481.016l.492-.87zm.491 0a.5.5 0 01-.491 0l-.492.87a1.5 1.5 0 001.474.002l-.491-.872zm191.952-107.997L213.293 480.146l.491.872 191.952-107.997-.491-.872zm.255-.435c0 .18-.097.347-.255.435l.491.872a1.5 1.5 0 00.764-1.307h-1zm0-242.628v242.628h1V129.086h-1zm-.256-.437a.5.5 0 01.256.437h1a1.5 1.5 0 00-.769-1.31l-.487.873zM213.292 21.567L405.244 128.65l.487-.873L213.779 20.694l-.487.873z"/></svg>