<svg width="16" height="22" viewBox="0 0 16 22" fill="none" xmlns="http://www.w3.org/2000/svg">
<path d="M9.03103 0.58523C8.89366 0.453727 8.73167 0.350645 8.55436 0.281896C8.38146 0.205478 8.19451 0.166006 8.00548 0.166006C7.81644 0.166006 7.62949 0.205478 7.45659 0.281896C7.27928 0.350645 7.11729 0.453727 6.97992 0.58523L1.20214 6.36301C0.930148 6.635 0.777343 7.00391 0.777343 7.38856C0.777343 7.77322 0.930148 8.14213 1.20214 8.41412C1.47414 8.68611 1.84304 8.83892 2.2277 8.83892C2.61236 8.83892 2.98126 8.68611 3.25325 8.41412L6.56103 5.0919L6.56103 20.3886C6.56103 20.7717 6.71321 21.1391 6.9841 21.4099C7.25499 21.6808 7.62239 21.833 8.00548 21.833C8.38857 21.833 8.75597 21.6808 9.02685 21.4099C9.29774 21.1391 9.44992 20.7717 9.44992 20.3886L9.44992 5.0919L12.7577 8.41412C13.0297 8.68611 13.3986 8.83892 13.7833 8.83892C14.1679 8.83892 14.5368 8.68611 14.8088 8.41412C15.0808 8.14212 15.2336 7.77322 15.2336 7.38856C15.2336 7.0039 15.0808 6.635 14.8088 6.36301L9.03103 0.58523Z" fill="currentColor"/>
</svg>
